<?xml version="1.0" encoding="UTF-8"?>
<!DOCTYPE svg PUBLIC "-//W3C//DTD SVG 1.1//EN" "http://www.w3.org/Graphics/SVG/1.1/DTD/svg11.dtd">
<svg xmlns="http://www.w3.org/2000/svg" xmlns:xlink="http://www.w3.org/1999/xlink" version="1.1" width="456px" height="424px" viewBox="-0.5 -0.5 456 424"><defs/><g><rect x="8" y="84" width="320" height="280" fill="rgb(255, 255, 255)" stroke="none" pointer-events="all"/><rect x="28" y="84" width="280" height="200" rx="30" ry="30" fill="#c1ae9c" stroke="none" pointer-events="all"/><rect x="28" y="164" width="280" height="240" rx="120" ry="120" fill="#f3a991" stroke="#666666" stroke-width="40" pointer-events="all"/><rect x="288" y="4" width="40" height="280" rx="13.2" ry="13.2" fill="#666666" stroke="none" pointer-events="all"/><path d="M 330.73 278.63 L 365.37 261.32 Q 400 244 400 204 L 400 164 Q 400 124 366 124 L 332 124" fill="none" stroke="#666666" stroke-width="40" stroke-miterlimit="10" pointer-events="stroke"/><ellipse cx="320" cy="284" rx="12" ry="12" fill="#666666" stroke="#666666" stroke-width="40" pointer-events="all"/><ellipse cx="320" cy="124" rx="12" ry="12" fill="#666666" stroke="#666666" stroke-width="40" pointer-events="all"/><rect x="8" y="4" width="40" height="280" rx="13.2" ry="13.2" fill="#666666" stroke="none" pointer-events="all"/><ellipse cx="84" cy="348" rx="20" ry="20" fill="#8b6a64" stroke="#8b6a64" stroke-width="40" pointer-events="all"/><ellipse cx="144" cy="364" rx="20" ry="20" fill="#8b6a64" stroke="#8b6a64" stroke-width="40" pointer-events="all"/><ellipse cx="204" cy="356" rx="20" ry="20" fill="#8b6a64" stroke="#8b6a64" stroke-width="40" pointer-events="all"/><ellipse cx="264" cy="340" rx="20" ry="20" fill="#8b6a64" stroke="#8b6a64" stroke-width="40" pointer-events="all"/><rect x="28" y="164" width="280" height="240" rx="120" ry="120" fill="none" stroke="#666666" stroke-width="40" pointer-events="all"/><path d="M 48 24 L 288 24 L 288 188.82 Q 228 161.51 168 188.82 Q 108 216.14 48 188.82 L 48 39.18 Z" fill="#f4e5c5" stroke="none" transform="rotate(-180,168,114)" pointer-events="all"/><path d="M 48 164 L 288 164 L 288 273.25 Q 228 253.9 168 273.25 Q 108 292.6 48 273.25 L 48 174.75 Z" fill="#f3a991" stroke="none" transform="rotate(-180,168,224)" pointer-events="all"/></g></svg>