<?xml version="1.0" encoding="UTF-8"?>
<!DOCTYPE svg PUBLIC "-//W3C//DTD SVG 1.1//EN" "http://www.w3.org/Graphics/SVG/1.1/DTD/svg11.dtd">
<svg xmlns="http://www.w3.org/2000/svg" xmlns:xlink="http://www.w3.org/1999/xlink" version="1.1" width="114px" height="106px" viewBox="-0.5 -0.5 114 106"><defs/><g><rect x="2" y="21" width="80" height="70" fill="rgb(255, 255, 255)" stroke="none" pointer-events="all"/><rect x="7" y="21" width="70" height="50" rx="7.5" ry="7.5" fill="#c1ae9c" stroke="none" pointer-events="all"/><rect x="7" y="41" width="70" height="60" rx="30" ry="30" fill="#c1ae9c" stroke="#666666" stroke-width="10" pointer-events="all"/><rect x="72" y="1" width="10" height="70" rx="3.3" ry="3.3" fill="#666666" stroke="none" pointer-events="all"/><path d="M 82.68 69.66 L 91.34 65.33 Q 100 61 100 51 L 100 41 Q 100 31 91.5 31 L 83 31" fill="none" stroke="#666666" stroke-width="10" stroke-miterlimit="10" pointer-events="stroke"/><ellipse cx="80" cy="71" rx="3" ry="3" fill="#666666" stroke="#666666" stroke-width="10" pointer-events="all"/><ellipse cx="80" cy="31" rx="3" ry="3" fill="#666666" stroke="#666666" stroke-width="10" pointer-events="all"/><rect x="2" y="1" width="10" height="70" rx="3.3" ry="3.3" fill="#666666" stroke="none" pointer-events="all"/><ellipse cx="21" cy="87" rx="5" ry="5" fill="#c1ae9c" stroke="#68492f" stroke-width="10" pointer-events="all"/><ellipse cx="36" cy="91" rx="5" ry="5" fill="#c1ae9c" stroke="#68492f" stroke-width="10" pointer-events="all"/><ellipse cx="51" cy="89" rx="5" ry="5" fill="#c1ae9c" stroke="#68492f" stroke-width="10" pointer-events="all"/><ellipse cx="66" cy="85" rx="5" ry="5" fill="#c1ae9c" stroke="#68492f" stroke-width="10" pointer-events="all"/><rect x="7" y="41" width="70" height="60" rx="30" ry="30" fill="none" stroke="#666666" stroke-width="10" pointer-events="all"/><path d="M 12 6 L 72 6 L 72 47.21 Q 57 40.38 42 47.21 Q 27 54.04 12 47.21 L 12 9.79 Z" fill="#dfd7c1" stroke="none" transform="rotate(-180,42,28.5)" pointer-events="all"/><path d="M 12 41 L 72 41 L 72 68.31 Q 57 63.48 42 68.31 Q 27 73.15 12 68.31 L 12 43.69 Z" fill="#c1ae9c" stroke="none" transform="rotate(-180,42,56)" pointer-events="all"/></g></svg>